<mxfile host="app.diagrams.net" modified="2024-07-04T15:28:55.007Z" agent="Mozilla/5.0 (Windows NT 10.0; Win64; x64) AppleWebKit/537.36 (KHTML, like Gecko) Chrome/126.0.0.0 Safari/537.36" version="24.6.4" etag="Phz7jHxgHOvXAlpjfj7m" type="github">
  <diagram name="Page-1" id="p_QwSBow55_eq2QRFA_u">
    <mxGraphModel>
      <root>
        <mxCell id="0" />
        <mxCell id="1" parent="0" />
      </root>
    </mxGraphModel>
  </diagram>
</mxfile>
